<svg width="9" height="15" fill="none"><path d="M3.392 14.173a1.522 1.522 0 01-.463-1.117c0-.436.154-.808.463-1.116.308-.309.68-.463 1.116-.463.436 0 .808.154 1.117.463.308.308.463.68.463 1.116 0 .436-.155.809-.463 1.117-.309.309-.68.463-1.117.463-.436 0-.808-.154-1.116-.463zM.232 3.62c0-.865.396-1.663 1.188-2.394C2.21.495 3.103.129 4.096.129c.992 0 1.807.154 2.444.463 1.402.67 2.103 1.824 2.103 3.46 0 .839-.325 1.684-.976 2.536L6.46 8.168a3 3 0 00-.553 1.076c-.222.818-.725 1.227-1.51 1.227-.784 0-1.177-.433-1.177-1.298 0-.603.242-1.214.725-1.83L5.444 5.45c.389-.49.583-.956.583-1.398 0-1.047-.53-1.57-1.59-1.57-.871 0-1.451.48-1.74 1.439-.208.657-.67.986-1.388.986-.718 0-1.076-.43-1.076-1.288z" fill="#7A8FA9"/></svg>