<svg width="20" height="20" viewBox="0 0 20 20" fill="none" xmlns="http://www.w3.org/2000/svg">
<path d="M7.98696 0.248544C6.00645 0.699537 3.40907 2.48681 2.25648 4.22396L1.86687 4.80858L1.70453 4.10704C1.4935 3.23846 0.860384 2.90439 0.324673 3.40549C0.0324673 3.67275 0 3.9066 0 5.67716C0 7.24728 0.048701 7.69828 0.259739 7.89872C0.454542 8.11586 0.925318 8.16597 2.61362 8.16597C4.49672 8.16597 4.74023 8.13257 5.03243 7.83191C5.74671 7.09695 5.1623 6.3286 3.87984 6.3286H3.06816L3.36037 5.79409C3.83114 4.92551 5.53568 3.23846 6.41229 2.77076C8.81488 1.53471 11.461 1.4846 13.8635 2.65384C14.8213 3.12154 16.3635 4.55803 17.0453 5.62705C18.5226 7.93213 18.62 11.5735 17.2726 13.9955C15.7466 16.6847 13.2304 18.188 10.1785 18.188C7.11034 18.188 4.30192 16.3507 2.95453 13.4276C2.40258 12.2416 2.14284 12.0412 1.47726 12.275C0.633113 12.5924 0.941552 13.912 2.37011 15.9665C4.52919 19.0733 8.52267 20.61 12.3376 19.7749C15.3246 19.1234 17.7434 17.1524 19.0583 14.2794C19.7564 12.7761 19.9999 11.6904 19.9999 10.0201C20.0323 3.55583 14.2207 -1.15454 7.98696 0.248544Z" fill="#223140"/>
<path d="M8.70124 5.76068C8.3441 6.12815 8.31163 11.1893 8.66877 11.49C8.79864 11.6069 9.78889 12.1414 10.8928 12.6926C12.5973 13.5779 12.922 13.6781 13.2629 13.5278C13.4739 13.4276 13.685 13.2271 13.7499 13.0768C13.9609 12.4922 13.4902 12.0245 11.8506 11.1726L10.2272 10.3374V8.18268C10.2272 5.8442 10.1136 5.49342 9.33435 5.49342C9.12331 5.49342 8.83111 5.61035 8.70124 5.76068Z" fill="#223140"/>
</svg>
