<svg width="56" height="45" fill="none"><path d="M44.032 2H12.3c-3.49 0-4.736.413-6.006 1.093a7.692 7.692 0 00-3.2 3.2C2.413 7.563 2 8.809 2 12.299v20.419c0 3.49.413 4.735 1.093 6.005a7.692 7.692 0 003.2 3.2c1.27.68 2.516 1.093 6.006 1.093h31.733c3.49 0 4.736-.413 6.006-1.093a7.692 7.692 0 003.2-3.2c.68-1.27 1.093-2.515 1.093-6.005v-20.42c0-3.49-.413-4.735-1.093-6.005a7.692 7.692 0 00-3.2-3.2C48.768 2.413 47.522 2 44.033 2z" fill="#EEE" stroke="#fff" stroke-width="2.829"/><path d="M52.917 14H3.414v6.365h49.503V14zM4 36h49a6 6 0 01-6 6H10a6 6 0 01-6-6zM52.917 28.845c0 1.037-.036 1.852-.107 2.52H3.522c-.071-.668-.108-1.483-.108-2.52V25h49.503v3.845zM53 9H4a6 6 0 016-6h37a6 6 0 016 6z" fill="#FF4B4B"/><path d="M12.299 2.93h15.867v19.093a2.829 2.829 0 01-2.829 2.829H3.414V11.814c0-3.09.322-4.21.926-5.34a6.297 6.297 0 012.62-2.619c1.13-.604 2.25-.926 5.339-.926z" fill="#1CB0F6"/><path d="M20.069 8.09l.486 3.322 1.879-2.783-1.008 3.205 2.9-1.693-2.296 2.45 3.35-.267-3.132 1.212 3.131 1.212-3.35-.268 2.297 2.45-2.9-1.692 1.008 3.204-1.88-2.782-.485 3.322-.486-3.322-1.879 2.782 1.008-3.204-2.9 1.693 2.296-2.451-3.35.268 3.132-1.212-3.131-1.212 3.35.268-2.297-2.451 2.9 1.693-1.008-3.205 1.88 2.783.485-3.323zm-2.723.135a5.81 5.81 0 100 10.621 6.536 6.536 0 110-10.62z" fill="#FC0"/></svg>